<svg xmlns="http://www.w3.org/2000/svg" xmlns:xlink="http://www.w3.org/1999/xlink" version="1.1" x="0px" y="0px" viewBox="0 0 100 125" enable-background="new 0 0 100 100" xml:space="preserve"><rect x="27.535" y="87.835" width="44.928" height="7.332"/><path d="M89.469,44.303c0-10.281-8.114-18.679-18.271-19.187c-0.479,6.375-5.152,12.525-7.829,12.525v-2  c1.101,0,5.738-5.198,5.865-11.322v-0.252c0-10.606-8.629-19.234-19.234-19.234c-10.606,0-19.234,8.628-19.234,19.234V24.3  c0.116,6.132,4.763,11.341,5.864,11.341v2c-2.676,0-7.349-6.149-7.827-12.524c-10.158,0.507-18.271,8.905-18.271,19.187  c0,9.483,6.797,17.459,16.163,18.964l0.841,0.135v22.434h44.928V63.401l0.842-0.135C82.671,61.762,89.469,53.787,89.469,44.303z"/><text x="0" y="115" fill="#000000" font-size="5px" font-weight="bold" font-family="'Helvetica Neue', Helvetica, Arial-Unicode, Arial, Sans-serif">Created by Srinivas Agra</text><text x="0" y="120" fill="#000000" font-size="5px" font-weight="bold" font-family="'Helvetica Neue', Helvetica, Arial-Unicode, Arial, Sans-serif">from the Noun Project</text></svg>