<svg xmlns="http://www.w3.org/2000/svg" data-name="Layer 1" viewBox="0 0 64 80" x="0px" y="0px"><title>Artboard 84</title><path d="M46.6238,20.7117,54.4444,6.1992a.45.45,0,0,1,.2543-.2031.405.405,0,0,1,.3255.0406l1.5659.8847a.4221.4221,0,0,1,.1935.2441.4535.4535,0,0,1-.0408.3253l-8.4611,14.38c-.2136-.1828-.4373-.3559-.6613-.5184a.8539.8539,0,0,1-.1117-.0812A9.7283,9.7283,0,0,0,46.6238,20.7117ZM40.0544,18.474c.173.1629.3559.3257.5186.4985L49.6747,3.5044a.4315.4315,0,0,0,.0408-.3153.4125.4125,0,0,0-.1931-.2544L47.9562,2.06a.4366.4366,0,0,0-.3153-.0506.4063.4063,0,0,0-.2439.2031L39.0679,17.64c.2746.2134.5389.4371.8035.6609C39.9323,18.3621,39.9933,18.4234,40.0544,18.474Zm-20.97,4.8918c-.0816-.1832-.1626-.356-.2339-.5391.01-.02.03-.0506.0508-.0912A13.1325,13.1325,0,0,1,38.1221,18.21c.2136.1525.4067.3257.62.4882.3154.2644.62.5287.9154.8238.2136.2034.427.4069.63.6306a1.2773,1.2773,0,0,0,.1121.1219.76.76,0,0,1,.0915.0916.5007.5007,0,0,0,.4068.1525,8.1064,8.1064,0,0,1,.8646-.051,8.8112,8.8112,0,0,1,3.9455.9154,9.062,9.062,0,0,1,1.4441.9054,10.3843,10.3843,0,0,1,.885.7421.91.91,0,0,0,.1017.1016.5753.5753,0,0,0,.2642.1732A12.9336,12.9336,0,0,1,57.8817,35.254H26.7423l-3.2239-4.5358a51.3931,51.3931,0,0,1-3.7729-6.01c-.183-.3456-.3458-.6813-.5085-1.0169C19.1862,23.5792,19.1355,23.4777,19.0847,23.3658ZM48.77,29.4576a.5086.5086,0,1,0,.8646-.3563.51.51,0,0,0-.7119,0A.4772.4772,0,0,0,48.77,29.4576ZM41.5391,30.81a.516.516,0,0,0,.1527.3559.4226.4226,0,0,0,.1626.1119.4378.4378,0,0,0,.1932.0406.5145.5145,0,0,0,.3661-.1525.5163.5163,0,0,0,0-.7119.523.523,0,0,0-.5593-.1118.4312.4312,0,0,0-.1626.1118A.5179.5179,0,0,0,41.5391,30.81ZM39.912,24.759a.5212.5212,0,0,0,.5085.5084.5634.5634,0,0,0,.3663-.1525.5087.5087,0,0,0,.1421-.3559.5517.5517,0,0,0-.1421-.366.5436.5436,0,0,0-.7223,0A.563.563,0,0,0,39.912,24.759Zm-4.8713-4.0067a.413.413,0,0,0,.0407.1931.445.445,0,0,0,.1017.1624.5145.5145,0,0,0,.3661.1525.4762.4762,0,0,0,.3561-.1525.4652.4652,0,0,0,.1117-.1624.5964.5964,0,0,0,.0406-.1931.5135.5135,0,0,0-.8745-.3564A.51.51,0,0,0,35.0407,20.7523Zm0,7.7083a.509.509,0,0,0,.1424.356.5621.5621,0,0,0,.3661.1525.5179.5179,0,0,0,.3561-.1525.4632.4632,0,0,0,.1117-.1628.6549.6549,0,0,0,.0406-.1932.5656.5656,0,0,0-.1523-.3663.5443.5443,0,0,0-.7222,0A.5537.5537,0,0,0,35.0407,28.4606ZM30.3321,24.759a.5216.5216,0,0,0,.5085.5084.5959.5959,0,0,0,.1933-.0406.5133.5133,0,0,0,.1728-.1119.5076.5076,0,0,0,.1423-.3559.5318.5318,0,0,0-.1423-.366.5162.5162,0,0,0-.5592-.1019.4883.4883,0,0,0-.3154.4679ZM29.3355,30.81a.5085.5085,0,0,0,1.0169,0,.4126.4126,0,0,0-.04-.1931.3627.3627,0,0,0-.1121-.1629.51.51,0,0,0-.7117,0A.4773.4773,0,0,0,29.3355,30.81Zm-5.98-7.5762a.5219.5219,0,0,0,.5084.5085.65.65,0,0,0,.2035-.041.5642.5642,0,0,0,.1626-.1119.5067.5067,0,0,0,.1426-.3556.5333.5333,0,0,0-.1426-.3663.5135.5135,0,0,0-.8745.3663ZM7.8674,29.3657a6.0343,6.0343,0,1,1,8.6749-8.39,5.8345,5.8345,0,0,1,1.1184,1.7082c.03.0613.01.0513.051.1019a1.0088,1.0088,0,0,1,.0406.1019,1.28,1.28,0,0,1,.0611.1218c.295.6913.6406,1.4239,1.0374,2.166a53.1145,53.1145,0,0,0,3.8339,6.1325l2.8068,3.9457H17.7829l-1.77-1.2609a35.46,35.46,0,0,0-6.3051-3.3764A6.2815,6.2815,0,0,1,8.213,29.681C8.1013,29.58,7.9792,29.4775,7.8674,29.3657Zm2.2577-2.42a.5993.5993,0,0,0,.0406.1932.6373.6373,0,0,0,.1121.1728.5423.5423,0,0,0,.1627.1015.4376.4376,0,0,0,.1931.0406.4812.4812,0,0,0,.2032-.0406A.5479.5479,0,0,0,11,27.3116a.5535.5535,0,0,0,.1421-.366A.51.51,0,0,0,11,26.5893a.4339.4339,0,0,0-.1631-.1119.5361.5361,0,0,0-.3963,0,.43.43,0,0,0-.1627.1119A.5189.5189,0,0,0,10.1251,26.9456ZM7.99,24.5248a.5108.5108,0,0,0,.1525.3564.663.663,0,0,0,.1626.1119.6705.6705,0,0,0,.1933.0406.5645.5645,0,0,0,.366-.1525.5466.5466,0,0,0,.1425-.3564.532.532,0,0,0-.1425-.3659.5451.5451,0,0,0-.5593-.1119.4612.4612,0,0,0-.1626.1119A.4983.4983,0,0,0,7.99,24.5248ZM7.949,26.5893a.4366.4366,0,0,0,.0406.1935.55.55,0,0,0,.1015.1628.5648.5648,0,0,0,.3663.1525.52.52,0,0,0,.3558-.1525.466.466,0,0,0,.1119-.1628.6508.6508,0,0,0,.0408-.1935.5626.5626,0,0,0-.1527-.3659.544.544,0,0,0-.7221,0A.5515.5515,0,0,0,7.949,26.5893Zm2.898,5.6546C10.3284,32,9.81,31.7757,9.3013,31.5523a8.9534,8.9534,0,0,1-1.0171-.5594.61.61,0,0,0-.081-.0509A10.1159,10.1159,0,0,0,8.03,32.8034a9.9911,9.9911,0,0,0,.3052,2.4506h7.6986l-.61-.4272A28.4143,28.4143,0,0,0,10.847,32.2439Zm-6.0711,4.027c.3458.7629.9255,2.0848,1.556,3.7121a.4311.4311,0,0,0,.01.0506,56.5991,56.5991,0,0,1,2.0135,6.0309c.1627.59.3255,1.19.4577,1.79,1.19,5.1765,6.2342,8.8272,10.7087,10.1391a11.8714,11.8714,0,0,0,3.2643.5188H41.2138a11.87,11.87,0,0,0,3.2643-.5188c4.4747-1.3119,9.5188-4.9626,10.7087-10.1391a66.4472,66.4472,0,0,1,4.0373-11.5833ZM42.6884,59.4171c-.1527.02-.3052.0406-.4475.051-.2543.0306-.5085.0406-.7627.0506-.0814,0-.173.01-.2644.01H22.7862c-.0914,0-.183-.01-.2644-.01-.2542-.01-.4983-.02-.7627-.0506-.1423-.01-.2948-.0307-.4475-.051-.2644-.0406-.5389-.0816-.8134-.1421-.0914-.0207-.1728-.0207-.2544-.041l.3459.8238A3.1557,3.1557,0,0,0,23.4983,62H40.5017A3.1557,3.1557,0,0,0,43.41,60.0578l.3459-.8238c-.0814.02-.1628.02-.244.041C43.2273,59.3355,42.9528,59.3765,42.6884,59.4171Z"/><text x="0" y="79" fill="#000000" font-size="5px" font-weight="bold" font-family="'Helvetica Neue', Helvetica, Arial-Unicode, Arial, Sans-serif">Created by Siipkan Creative</text><text x="0" y="84" fill="#000000" font-size="5px" font-weight="bold" font-family="'Helvetica Neue', Helvetica, Arial-Unicode, Arial, Sans-serif">from the Noun Project</text></svg>