<?xml version="1.0" encoding="utf-8"?>
<!-- Generator: Adobe Illustrator 23.0.0, SVG Export Plug-In . SVG Version: 6.00 Build 0)  -->
<svg version="1.1" id="Layer_1" xmlns="http://www.w3.org/2000/svg" xmlns:xlink="http://www.w3.org/1999/xlink" x="0px" y="0px"
	 viewBox="0 0 64 80" style="enable-background:new 0 0 64 80;" xml:space="preserve">
<style type="text/css">
	.st0{fill:#008080;}
</style>
<title>Artboard 84</title>
<path class="st0" d="M46.6,20.7l7.8-14.5C54.5,6.1,54.6,6,54.7,6c0.1,0,0.2,0,0.3,0l1.6,0.9c0.1,0.1,0.2,0.1,0.2,0.2
	c0,0.1,0,0.2,0,0.3l-8.5,14.4c-0.2-0.2-0.4-0.4-0.7-0.5c0,0-0.1-0.1-0.1-0.1C47.2,21.1,46.9,20.9,46.6,20.7z M40.1,18.5
	c0.2,0.2,0.4,0.3,0.5,0.5l9.1-15.5c0.1-0.1,0.1-0.2,0-0.3c0-0.1-0.1-0.2-0.2-0.3L48,2.1C47.9,2,47.7,2,47.6,2
	c-0.1,0-0.2,0.1-0.2,0.2l-8.3,15.4c0.3,0.2,0.5,0.4,0.8,0.7C39.9,18.4,40,18.4,40.1,18.5z M19.1,23.4c-0.1-0.2-0.2-0.4-0.2-0.5
	c0,0,0-0.1,0.1-0.1c3.4-6.4,11.4-8.8,17.8-5.4c0.5,0.3,1,0.6,1.5,0.9c0.2,0.2,0.4,0.3,0.6,0.5c0.3,0.3,0.6,0.5,0.9,0.8
	c0.2,0.2,0.4,0.4,0.6,0.6c0,0,0.1,0.1,0.1,0.1c0,0,0.1,0.1,0.1,0.1c0.1,0.1,0.3,0.2,0.4,0.2c0.3,0,0.6,0,0.9-0.1
	c1.4,0,2.7,0.3,3.9,0.9c0.5,0.3,1,0.6,1.4,0.9c0.3,0.2,0.6,0.5,0.9,0.7c0,0,0.1,0.1,0.1,0.1c0.1,0.1,0.2,0.1,0.3,0.2
	c5.4,1.5,9.3,6.3,9.5,11.9H26.7l-3.2-4.5c-1.4-1.9-2.7-3.9-3.8-6c-0.2-0.3-0.3-0.7-0.5-1C19.2,23.6,19.1,23.5,19.1,23.4L19.1,23.4z
	 M48.8,29.5c0,0.3,0.2,0.5,0.5,0.5c0.3,0,0.5-0.2,0.5-0.5c0-0.1-0.1-0.3-0.2-0.4c-0.2-0.2-0.5-0.2-0.7,0
	C48.8,29.2,48.8,29.3,48.8,29.5z M41.5,30.8c0,0.1,0.1,0.3,0.2,0.4c0,0,0.1,0.1,0.2,0.1c0.1,0,0.1,0,0.2,0c0.1,0,0.3-0.1,0.4-0.2
	c0.2-0.2,0.2-0.5,0-0.7c-0.1-0.1-0.4-0.2-0.6-0.1c-0.1,0-0.1,0.1-0.2,0.1C41.6,30.5,41.5,30.7,41.5,30.8z M39.9,24.8
	c0,0.3,0.2,0.5,0.5,0.5c0.1,0,0.3-0.1,0.4-0.2c0.1-0.1,0.1-0.2,0.1-0.4c0-0.1-0.1-0.3-0.1-0.4c-0.2-0.2-0.5-0.2-0.7,0
	C40,24.5,39.9,24.6,39.9,24.8z M35,20.8c0,0.1,0,0.1,0,0.2c0,0.1,0.1,0.1,0.1,0.2c0.1,0.1,0.2,0.2,0.4,0.2c0.1,0,0.3-0.1,0.4-0.2
	c0,0,0.1-0.1,0.1-0.2c0-0.1,0-0.1,0-0.2c0-0.3-0.2-0.5-0.5-0.5c-0.1,0-0.3,0.1-0.4,0.1C35.1,20.5,35,20.6,35,20.8z M35,28.5
	c0,0.1,0.1,0.3,0.1,0.4c0.1,0.1,0.2,0.1,0.4,0.2c0.1,0,0.3-0.1,0.4-0.2c0,0,0.1-0.1,0.1-0.2c0-0.1,0-0.1,0-0.2
	c0-0.1-0.1-0.3-0.2-0.4c-0.2-0.2-0.5-0.2-0.7,0C35.1,28.2,35,28.3,35,28.5z M30.3,24.8c0,0.3,0.2,0.5,0.5,0.5c0.1,0,0.1,0,0.2,0
	c0.1,0,0.1-0.1,0.2-0.1c0.1-0.1,0.1-0.2,0.1-0.4c0-0.1,0-0.3-0.1-0.4c-0.1-0.1-0.4-0.2-0.6-0.1C30.5,24.4,30.3,24.6,30.3,24.8z
	 M29.3,30.8c0,0.3,0.2,0.5,0.5,0.5c0.3,0,0.5-0.2,0.5-0.5c0-0.1,0-0.1,0-0.2c0-0.1-0.1-0.1-0.1-0.2c-0.2-0.2-0.5-0.2-0.7,0
	C29.4,30.5,29.3,30.7,29.3,30.8z M23.4,23.2c0,0.3,0.2,0.5,0.5,0.5c0.1,0,0.1,0,0.2,0c0.1,0,0.1-0.1,0.2-0.1
	c0.1-0.1,0.1-0.2,0.1-0.4c0-0.1-0.1-0.3-0.1-0.4c-0.2-0.2-0.5-0.2-0.7,0C23.4,23,23.4,23.1,23.4,23.2z M7.9,29.4
	C5.5,27,5.6,23.2,8,20.8s6.2-2.3,8.5,0.1c0,0,0,0,0,0.1c0.5,0.5,0.8,1.1,1.1,1.7c0,0.1,0,0.1,0.1,0.1c0,0,0,0.1,0,0.1
	c0,0,0,0.1,0.1,0.1c0.3,0.7,0.6,1.4,1,2.2c1.1,2.1,2.4,4.2,3.8,6.1l2.8,3.9h-7.7L16,34c-2-1.3-4.1-2.5-6.3-3.4
	c-0.5-0.2-1-0.6-1.5-0.9C8.1,29.6,8,29.5,7.9,29.4z M10.1,26.9c0,0.1,0,0.1,0,0.2c0,0.1,0.1,0.1,0.1,0.2c0,0,0.1,0.1,0.2,0.1
	c0.1,0,0.1,0,0.2,0c0.1,0,0.1,0,0.2,0c0.1,0,0.1-0.1,0.2-0.1c0.1-0.1,0.1-0.2,0.1-0.4c0-0.1-0.1-0.3-0.1-0.4c0,0-0.1-0.1-0.2-0.1
	c-0.1-0.1-0.3-0.1-0.4,0c-0.1,0-0.1,0.1-0.2,0.1C10.2,26.7,10.1,26.8,10.1,26.9L10.1,26.9z M8,24.5c0,0.1,0.1,0.3,0.2,0.4
	c0,0,0.1,0.1,0.2,0.1c0.1,0,0.1,0,0.2,0c0.1,0,0.3-0.1,0.4-0.2C9,24.8,9,24.7,9,24.5c0-0.1-0.1-0.3-0.1-0.4C8.7,24,8.5,24,8.3,24
	c-0.1,0-0.1,0.1-0.2,0.1C8,24.3,8,24.4,8,24.5z M7.9,26.6c0,0.1,0,0.1,0,0.2c0,0.1,0.1,0.1,0.1,0.2c0.1,0.1,0.2,0.1,0.4,0.2
	c0.1,0,0.3-0.1,0.4-0.2c0,0,0.1-0.1,0.1-0.2c0-0.1,0-0.1,0-0.2c0-0.1-0.1-0.3-0.2-0.4c-0.2-0.2-0.5-0.2-0.7,0
	C8,26.3,7.9,26.5,7.9,26.6z M10.8,32.2c-0.5-0.2-1-0.5-1.5-0.7c-0.4-0.2-0.7-0.4-1-0.6c0,0-0.1,0-0.1-0.1C8.1,31.6,8,32.2,8,32.8
	c0,0.8,0.1,1.6,0.3,2.5H16l-0.6-0.4C14,33.8,12.4,33,10.8,32.2z M4.8,36.3C5.1,37,5.7,38.4,6.3,40c0,0,0,0,0,0.1c0.8,2,1.5,4,2,6
	c0.2,0.6,0.3,1.2,0.5,1.8C10,53,15,56.7,19.5,58c1.1,0.3,2.2,0.5,3.3,0.5h18.4c1.1,0,2.2-0.2,3.3-0.5c4.5-1.3,9.5-5,10.7-10.1
	c1-4,2.3-7.9,4-11.6L4.8,36.3z M42.7,59.4c-0.2,0-0.3,0-0.4,0.1c-0.3,0-0.5,0-0.8,0.1c-0.1,0-0.2,0-0.3,0H22.8c-0.1,0-0.2,0-0.3,0
	c-0.3,0-0.5,0-0.8-0.1c-0.1,0-0.3,0-0.4-0.1c-0.3,0-0.5-0.1-0.8-0.1c-0.1,0-0.2,0-0.3,0l0.3,0.8c0.5,1.2,1.6,1.9,2.9,1.9h17
	c1.3,0,2.4-0.8,2.9-1.9l0.3-0.8c-0.1,0-0.2,0-0.2,0C43.2,59.3,43,59.4,42.7,59.4z"/>
</svg>
