<?xml version="1.0" encoding="utf-8"?>
<!-- Generator: Adobe Illustrator 23.0.0, SVG Export Plug-In . SVG Version: 6.00 Build 0)  -->
<svg version="1.1" id="Layer_1" xmlns="http://www.w3.org/2000/svg" xmlns:xlink="http://www.w3.org/1999/xlink" x="0px" y="0px"
	 viewBox="0 0 70 87.5" style="enable-background:new 0 0 70 87.5;" xml:space="preserve">
<style type="text/css">
	.st0{fill:#008080;}
</style>
<g>
	<g>
		<g>
			<path class="st0" d="M57.9,49.6L50.3,42c-0.4-0.4-1-0.4-1.4,0l-0.7,0.7l-2.9-2.9c5-7.4,4.2-17.6-2.3-24.1
				C39.3,12,34.5,10,29.4,10c-5.1,0-9.9,2-13.5,5.6c-3.6,3.6-5.6,8.4-5.6,13.5c0,5.1,2,9.9,5.6,13.5c3.7,3.7,8.6,5.6,13.5,5.6
				c3.4,0,6.8-0.9,9.9-2.8l3.1,3.1l-0.7,0.7c-0.4,0.4-0.4,1,0,1.4l7.6,7.6c1.1,1.1,2.7,1.8,4.3,1.8c1.6,0,3.2-0.6,4.3-1.8
				c1.1-1.2,1.8-2.7,1.8-4.3C59.7,52.3,59.1,50.8,57.9,49.6z M42.5,40c-0.3,0.3-0.6,0.6-0.9,0.9c0,0.1-0.1,0.1-0.2,0.2
				c-0.8,0.8-1.7,1.5-2.6,2.1c0,0,0,0,0,0c-6.6,4.4-15.7,3.7-21.5-2.1c-3.2-3.2-5-7.5-5-12.1c0-4.6,1.8-8.9,5-12.1
				c3.2-3.2,7.5-5,12.1-5c4.6,0,8.8,1.8,12.1,5c6.2,6.2,6.6,15.9,1.4,22.6C42.7,39.8,42.6,39.9,42.5,40z"/>
		</g>
	</g>
	<g>
		<g>
			<path class="st0" d="M29.4,17.8c-4.9,0-8.9,4-8.9,8.9c0,4.6,7.3,12.6,8.1,13.5c0.2,0.2,0.5,0.3,0.7,0.3c0.3,0,0.5-0.1,0.7-0.3
				c0.8-0.9,8.2-8.9,8.2-13.5C38.3,21.7,34.3,17.8,29.4,17.8z M29.4,30.7c-2.2,0-4-1.8-4-4.1c0-2.2,1.8-4.1,4-4.1
				c2.2,0,4.1,1.8,4.1,4.1C33.5,28.9,31.6,30.7,29.4,30.7z"/>
		</g>
	</g>
</g>
</svg>
