<?xml version="1.0" encoding="utf-8"?>
<!-- Generator: Adobe Illustrator 23.0.0, SVG Export Plug-In . SVG Version: 6.00 Build 0)  -->
<svg version="1.1" id="Layer_1" xmlns="http://www.w3.org/2000/svg" xmlns:xlink="http://www.w3.org/1999/xlink" x="0px" y="0px"
	 viewBox="0 0 64 80" style="enable-background:new 0 0 64 80;" xml:space="preserve">
<style type="text/css">
	.st0{fill:#008080;}
</style>
<title>Glyph - Compound</title>
<g>
	<path class="st0" d="M13,53h38v5c0,0.6-0.4,1-1,1H14c-0.6,0-1-0.4-1-1V53z M49.2,11.1c1.2,1.8,1.8,3.8,1.8,5.9c0,0.6-0.4,1-1,1
		s-1-0.4-1-1c0-0.4,0-0.8-0.1-1.1c0-0.1,0-0.2-0.1-0.3c0-0.3-0.1-0.5-0.2-0.8c0-0.1-0.1-0.3-0.1-0.4c-0.1-0.2-0.2-0.5-0.3-0.7
		c0-0.1-0.1-0.2-0.1-0.4c-0.1-0.3-0.3-0.5-0.4-0.8c0-0.1-0.1-0.1-0.1-0.2c-0.2-0.3-0.4-0.7-0.7-1c-0.1-0.1-0.1-0.2-0.2-0.3
		c-0.2-0.2-0.4-0.4-0.6-0.7c-0.1-0.1-0.2-0.2-0.3-0.3c-0.2-0.2-0.4-0.4-0.6-0.6c-0.1-0.1-0.2-0.2-0.3-0.3c-0.2-0.2-0.5-0.4-0.7-0.6
		c-0.1-0.1-0.2-0.1-0.3-0.2c-0.4-0.2-0.7-0.5-1.1-0.7c-0.1,0-0.2-0.1-0.3-0.1c-0.3-0.2-0.6-0.3-0.9-0.5c-0.1-0.1-0.3-0.1-0.4-0.2
		c-0.3-0.1-0.6-0.2-0.8-0.4c-0.2-0.1-0.3-0.1-0.5-0.2c-0.3-0.1-0.6-0.2-0.9-0.3c-0.2,0-0.3-0.1-0.5-0.1c-0.5-0.1-0.9-0.3-1.4-0.4
		l0,0l0,0c0,0,0,0,0,0c-1-0.2-2.1-0.4-3.1-0.4l0,0h0C33.3,5,32.6,5,32,5s-1.3,0-1.9,0.1h0l0,0c-1,0.1-2.1,0.2-3.1,0.4c0,0,0,0,0,0
		l0,0l0,0c-0.5,0.1-1,0.2-1.4,0.4c-0.2,0-0.3,0.1-0.5,0.1c-0.3,0.1-0.6,0.2-0.9,0.3c-0.2,0.1-0.3,0.1-0.5,0.2
		c-0.3,0.1-0.6,0.2-0.9,0.4c-0.1,0.1-0.3,0.1-0.4,0.2c-0.3,0.2-0.6,0.3-0.9,0.5c-0.1,0-0.2,0.1-0.3,0.1c-0.4,0.2-0.7,0.5-1.1,0.7
		c-0.1,0.1-0.2,0.1-0.3,0.2c-0.2,0.2-0.5,0.4-0.7,0.6c-0.1,0.1-0.2,0.2-0.3,0.3c-0.2,0.2-0.4,0.4-0.6,0.6c-0.1,0.1-0.2,0.2-0.3,0.3
		c-0.2,0.2-0.4,0.4-0.6,0.7c-0.1,0.1-0.1,0.2-0.2,0.3c-0.2,0.3-0.5,0.6-0.7,1c0,0.1-0.1,0.1-0.1,0.2c-0.2,0.3-0.3,0.5-0.4,0.8
		c-0.1,0.1-0.1,0.2-0.1,0.4c-0.1,0.2-0.2,0.5-0.3,0.7c0,0.1-0.1,0.3-0.1,0.4c-0.1,0.2-0.1,0.5-0.2,0.8c0,0.1,0,0.2-0.1,0.3
		C15,16.2,15,16.6,15,17c0,0.6-0.4,1-1,1s-1-0.4-1-1c0-2.1,0.7-4.2,1.8-5.9C8.2,11.7,3.4,17.6,4.1,24.2c0.5,5,4.1,9.2,8.9,10.4V51
		h10c-0.1-2.9-0.3-11.5-1.9-14.6c-0.2-0.5,0-1.1,0.4-1.3c0.5-0.2,1.1,0,1.3,0.4c1.8,3.5,2,12.4,2.1,15.4h6V36c0-0.6,0.4-1,1-1
		s1,0.4,1,1v15h6c0-3,0.3-11.9,2.1-15.4c0.2-0.5,0.8-0.7,1.3-0.4s0.7,0.8,0.4,1.3C41.3,39.5,41.1,48.1,41,51h10V34.6
		c6.4-1.7,10.3-8.2,8.6-14.6C58.4,15.1,54.2,11.6,49.2,11.1z"/>
</g>
</svg>
